<svg width="48" height="45" viewBox="0 0 48 45" fill="none" xmlns="http://www.w3.org/2000/svg">
<path d="M32.7902 21.1892C36.7239 21.1892 39.9245 17.9806 39.9245 14.0371C39.9245 10.0936 36.7239 6.88488 32.7902 6.88488C32.7902 6.88488 33.0578 6.70982 18.833 6.70982C10.539 6.70982 4.23382 0 4.23382 0C8.99147 0.148851 32.7902 0.0450746 32.7902 0.0450746C40.4986 0.0450746 46.7473 6.30939 46.7473 14.0371C46.7473 21.7647 40.4986 28.029 32.7902 28.029L48 42.4099H36.4917C26.6941 21.7322 4.23382 28.2387 4.23382 28.2387C4.23382 24.1966 9.26334 23.379 9.26334 23.379C9.26334 23.379 9.83007 21.1431 16.9205 21.1431" fill="#D1D3D4"/>
<path d="M28.5563 23.1201C32.49 23.1201 35.6907 19.9114 35.6907 15.9679C35.6907 12.0244 32.49 8.81573 28.5563 8.81573C28.5563 8.81573 28.824 8.64068 14.5992 8.64068C6.30519 8.64068 0 1.93086 0 1.93086C4.75765 2.07971 28.5563 1.97593 28.5563 1.97593C36.2648 1.97593 42.5135 8.24025 42.5135 15.9679C42.5135 23.6956 36.2648 29.9599 28.5563 29.9599L43.7662 44.3408H32.2589C22.4613 23.6631 0.00104506 30.1695 0.00104506 30.1695C0.00104506 26.1275 5.03056 25.3099 5.03056 25.3099C5.03056 25.3099 5.59729 23.074 12.6878 23.074" fill="#27AAE1"/>
</svg>
