<svg width="350" height="100" viewBox="0 0 350 100" fill="none" xmlns="http://www.w3.org/2000/svg">
  <mask id="a" maskUnits="userSpaceOnUse" x="98.925" y="10.624" width="249" height="81" fill="#000">
    <path fill="#fff" d="M98.925 10.624h249v81h-249z"/>
    <path d="M119.581 90.317v-31.67h12.894q5.067 0 8.867 2.036 3.846 1.99 5.972 5.565 2.127 3.574 2.127 8.234t-2.127 8.234q-2.126 3.574-5.972 5.61-3.8 1.99-8.867 1.99zm3.348-2.896h9.365q4.208 0 7.284-1.629 3.122-1.673 4.841-4.569 1.719-2.94 1.719-6.741 0-3.845-1.719-6.741t-4.841-4.524q-3.077-1.674-7.284-1.674h-9.365zm37.953 2.896V78.554l.769 2.08-13.436-21.987h3.574l11.808 19.319h-1.9l11.808-19.319h3.348l-13.437 21.988.769-2.081v11.763zm18.238 0v-31.67h2.76l21.852 27.507h-1.448V58.647h3.303v31.67h-2.76L181.02 62.81h1.448v27.507zm29.474 0 14.478-31.67h3.302l14.478 31.67h-3.529l-13.301-29.724h1.357l-13.301 29.724zm5.701-8.46.995-2.715h18.413l.996 2.714zm29.533 8.46v-31.67h2.76l14.478 24.702h-1.448l14.342-24.702h2.759v31.67h-3.212V63.669h.769l-13.21 22.621h-1.584l-13.301-22.62h.86v26.647zm40.948 0v-31.67h3.348v31.67zm25.144.271q-3.575 0-6.606-1.176-3.031-1.222-5.248-3.393a15.9 15.9 0 0 1-3.484-5.113q-1.221-2.94-1.221-6.424 0-3.483 1.221-6.424a15.9 15.9 0 0 1 3.484-5.113q2.263-2.17 5.293-3.348 3.031-1.221 6.606-1.221 3.438 0 6.469 1.176 3.031 1.13 5.113 3.439l-2.127 2.126q-1.945-1.99-4.298-2.85-2.352-.905-5.067-.905-2.85 0-5.293.995a12.2 12.2 0 0 0-4.253 2.76 13 13 0 0 0-2.85 4.162q-.995 2.353-.995 5.203t.995 5.248a13.7 13.7 0 0 0 2.85 4.162 13.1 13.1 0 0 0 4.253 2.76q2.443.95 5.293.95 2.715 0 5.067-.905 2.353-.904 4.298-2.895l2.127 2.126q-2.082 2.308-5.113 3.484-3.03 1.176-6.514 1.176m25.145 0q-3.53 0-6.786-1.13-3.213-1.177-4.977-2.987l1.312-2.579q1.674 1.629 4.479 2.76 2.85 1.086 5.972 1.086 2.985 0 4.841-.724 1.9-.769 2.759-2.036.906-1.267.905-2.805 0-1.855-1.086-2.986-1.04-1.131-2.759-1.764a28 28 0 0 0-3.801-1.177 211 211 0 0 1-4.162-1.04 19 19 0 0 1-3.845-1.538 8.26 8.26 0 0 1-2.805-2.489q-1.041-1.583-1.041-4.117 0-2.352 1.222-4.298 1.266-1.99 3.845-3.167 2.579-1.221 6.605-1.221 2.67 0 5.294.769 2.624.724 4.524 2.036l-1.131 2.67a14.9 14.9 0 0 0-4.343-1.992q-2.262-.633-4.389-.633-2.85 0-4.705.77-1.855.769-2.76 2.08-.86 1.267-.859 2.896 0 1.855 1.04 2.986 1.086 1.131 2.805 1.764 1.765.634 3.846 1.131a92 92 0 0 1 4.117 1.086q2.08.588 3.8 1.538 1.764.906 2.805 2.443 1.086 1.539 1.086 4.027 0 2.307-1.267 4.298-1.266 1.945-3.891 3.167-2.579 1.176-6.65 1.176M122.789 15.881q0 1.135-.197 1.135-.297 0-.691-.049a3.3 3.3 0 0 0-.889-.099h-7.897l-6.12-.05q-.295 0-2.221.149l-1.135.099-.098 1.332q-.05.74-.05 2.32 0 .789.099 2.073.099 1.185.099 1.727v1.974q0 .79.049 1.234.444.05 1.333.05h1.974q.296 0 1.184-.099a30 30 0 0 1 2.221-.099q.396 0 2.764.148l1.086.05q.395 0 1.135-.05.741-.098 1.431-.098l1.629.049q1.284.099 1.777.099.543 0 .74-.05l.296-.049q.346 0 .494.247.148.197.099.395-.05.345-.05.888 0 .494-.049.888-.05.396-.148.494-.099.05-.592.05l-1.975-.198q-3.701-.345-4.836-.346-4.196 0-6.17.149a14 14 0 0 1-1.727.098h-1.185q-.937 0-1.382-.05l-.148.79a15 15 0 0 0-.098 1.58q0 .592.098 1.382.099.79.099 1.382l.049 5.873-.049 2.468q-.05.444-.049 1.234.641.048 1.875.049 1.036.05 3.208.05l2.665.049q.84.049 2.567.049 1.037 0 2.714-.099l2.073-.05q1.185 0 1.974.05.79.05 1.185.05t.444.148q.099.147.099.641 0 .345-.049.74-.05.346-.05.79 0 .345-.247.494-.246.099-.789.099t-.889-.05q-1.332-.148-5.379-.148-2.469 0-3.554.05-.839.048-2.764.049l-4.59-.05a31 31 0 0 0-1.875-.049q-.691 0-.938-.148-.198-.198-.197-.592l.049-.79a1.8 1.8 0 0 0 .049-.444q0-.149-.049-.691-.05-.592-.049-2.122 0-1.481-.099-4.837a99 99 0 0 1-.148-5.33q0-1.086.247-6.268l.098-2.073q.05-1.037.05-1.876 0-5.725-.148-7.551-.149-1.185 1.431-1.185.395 0 1.283.1.79.098 1.185.098l3.109-.099q3.356-.197 5.182-.197 2.123 0 5.972.098 1.234.05 2.616.05.593 0 .74.296.149.295.099.642zm15.83-3.257q4.047 0 6.12 1.48 2.073 1.432 2.863 2.666.839 1.185 1.036 1.48.494.642.494.987a.67.67 0 0 1-.198.494 1.9 1.9 0 0 1-.493.345q-.297.149-.395.247-.592.395-1.579 1.234l-1.333 1.037q-.839.64-1.135.79a.66.66 0 0 1-.395.147q-.345 0-.642-.395a14 14 0 0 1-.394-.543q-.099-.147-.543-.641a3.3 3.3 0 0 0-1.037-.84 3 3 0 0 0-1.431-.345q-1.48 0-2.32 1.925t-.839 6.86q0 3.258.543 5.33.543 2.074 1.283 3.012.79.888 1.481.888.987 0 1.481-.444.543-.445.937-1.678.395-1.185 1.284-1.185.296 0 .641.099l.592.148q.495.197 2.419.642 1.924.395 3.307.641.69.148.691 1.185 0 .493-.05.74-.049.642-.395 1.727-1.036 3.16-3.553 5.726-2.468 2.517-7.403 2.517-3.01-.001-6.071-1.826t-5.182-6.071q-2.123-4.294-2.123-11.253 0-9.87 3.801-13.474 3.8-3.652 8.538-3.652m19.309 1.431q-.05.592-.099 6.91a1658 1658 0 0 0-.049 12.98q0 2.863.691 5.133.74 2.27 2.023 3.553 1.284 1.284 2.863 1.284 2.171 0 3.109-1.234.987-1.284.987-2.665l.099-3.01q.148-7.404.148-8.194 0-1.136.099-4.491.148-2.814.148-5.528 0-2.418-.198-3.405-.148-.593-.148-.938 0-.69.296-.84.346-.196.642-.147h.444q.494.05 1.086.05.642-.05 1.135-.05h1.283q.79 0 .889.247.147.197.197.937.099 1.087.099 2.665 0 1.085-.049 1.58-.05.493.049 4.146.246 6.02.247 9.92v3.01q-.099 6.368-3.06 9.23-2.913 2.813-7.058 2.813-3.159 0-5.084-2.073-1.925-2.122-2.714-4.688-.345-1.135-.543-3.505a81 81 0 0 1-.148-4.935q0-2.814.148-3.751.099-.69.099-4.59 0-6.219-.198-8.983a5 5 0 0 1-.049-.79q0-1.53.938-1.134l.543.049q.197 0 .394-.05.247-.049.494-.049.246 0 .247.543m31.157 4.689q-.198 4.047-.198 6.07l.099 7.453q.05 1.777.049 3.652l-.099 5.38-.049.987.049 1.382.099 1.727 7.058.247 5.873.05h.099q.296 0 .345.098.05.1 0 .296v.247q-.05.198 0 .74.099.543.099.988 0 .345-.247.444-.246.099-.641.05h-.543l-2.616-.149q-3.455-.296-4.886-.296-1.58 0-7.996.296l-4.491.148q-1.086 0-1.086-.987v-3.85l.198-16.533q0-1.875-.247-6.812l-.198-6.07q0-.84.642-.84.247 0 .839.149.593.148.938.148 1.381.197 3.307.197 1.332 0 2.517-.148.74-.099 1.036.099.297.197.296.642 0 .345-.098.74-.05.345-.05.79zm18.034-5.38q.642.05 1.234.05.642-.05 1.086-.05 1.086 0 1.579.05.593.049.84.246a.66.66 0 0 1 .246.543q0 .248-.049.543-.05.295-.099.543a74 74 0 0 0-.592 8.637q-.05 1.284-.049 3.948l.049 5.972q.05.741.049 1.53l.05 1.975q.098 2.565.098 3.8 0 .937-.049 1.135-.05.198-.049 1.135l.049 2.715q.05.592.049 1.48.05.642-.394.79-.396.198-1.086.148h-4.492q-.74.05-.937-.345-.198-.346-.247-1.185-.099-.345.099-1.826.197-1.381.197-2.37 0-.344.346-6.662.296-4.64.296-5.083l.098-4.837.099-4.492.099-2.665.099-1.776V15.24q0-1.925.987-1.925.246 0 .394.05m31.744 34.103q.148.345.148.494 0 .197-.543.197h-2.764q-.198 0-.345-.05-.099-.098-.198-.394a28 28 0 0 1-.543-1.777q-.444-1.234-.592-2.22a15 15 0 0 0-.494-1.777q-.296-1.037-.543-1.58a14 14 0 0 1-.789-2.122l-.444-1.431q-.248-.543-.395-.642-.1-.148-.395-.148-1.036 0-1.53.05l-2.122.098q-.395.05-3.653.05h-3.109q-.296 0-.444.542l-.099.494-.197.938q-.099.246-.642 2.862-.148.84-.493 2.172-.099.986-.445 1.629-.098.147-.246.69a81 81 0 0 1-.247.889q-.148.394-.346 1.283-.049.05-.098.247-.05.148-.148.197h-1.284q-.444 0-.246-.641 0-.149.049-.247 0-.099.049-.247l.148-.444.445-1.826.345-1.037q.247-.74.346-1.382.246-1.184.937-3.602l.395-1.382q.938-3.06 1.185-4.294l.691-2.616q.493-1.629.592-2.073.345-1.48.987-3.702l.345-1.382.297-1.036q.493-1.679.839-2.418.098-.297.691-2.024.64-1.776.839-2.813.345-1.185.691-1.777.394-.592 1.036-.592.247 0 .494.444.246.444.493 1.086t.346.938q.394.938 1.382 4.688l.394 1.382q.05.395 1.629 4.837l.938 2.715.888 2.32q1.382 3.899 1.777 4.737 1.727 5.232 2.024 6.318.345 1.283 1.085 3.208.79 1.925.889 2.171m-9.23-14.658q.642 0 .642-.346 0-.246-.346-1.085-.295-.74-.888-2.764a32 32 0 0 0-.888-2.813q-.494-1.482-1.086-3.505-.543-2.023-.642-2.616-.74-2.615-.987-2.615-.148 0-.493 1.332l-.296 1.086q-.346 1.332-.889 3.356a84 84 0 0 1-.987 3.356 83 83 0 0 1-.839 3.258q-.493 1.924-.79 2.665a2 2 0 0 0-.098.345q0 .345.296.445.345.098.641.098.346-.05.445-.049l2.862-.099q.592-.099 1.678-.098zm35.33 13.326q1.333 1.332 1.333 1.826 0 .098-.247.345-.444.297-2.221.296-1.283 0-1.629-.197-.345-.149-.542-.543a7 7 0 0 0-.247-.592q-.148-.296-1.234-1.678a582 582 0 0 0-1.579-2.172 169 169 0 0 1-4.541-6.07q-1.185-1.68-4.393-5.775l-.789-.987-3.406-4.245-.197 1.975q-.198 1.48-.099 3.553.149 1.383.197 7.157.05 5.774.05 8.44 0 .79-.592.986-.593.247-1.382.247-.346 0-.445-.296a4 4 0 0 1-.148-.642v-.444q-.098-.79-.098-2.32 0-.986.049-1.48.05-2.666.148-9.279.099-6.663.099-11.944 0-5.675-.148-6.613a9 9 0 0 1-.05-1.037q0-.74.198-.937.247-.198.691-.198.987 0 1.925.05l5.379.098q2.961 0 6.17 1.037 3.207 1.036 3.208 3.85 0 2.664-1.975 4.145a11.4 11.4 0 0 1-4.441 2.024q-2.42.543-4.245.543-.642 0-.691-.05.296.297 3.899 5.232Q263.829 45 264.963 46.136m-19.643-22.9q1.629 0 2.468-.05 2.862-.1 4.442-.395 2.27-.395 3.405-1.086 1.185-.69 1.185-2.171 0-.988-1.037-1.679-1.036-.74-2.517-1.085-1.431-.395-2.517-.395a92 92 0 0 0-3.455-.05h-1.678z"/>
  </mask>
  <path d="M119.581 90.317v-31.67h12.894q5.067 0 8.867 2.036 3.846 1.99 5.972 5.565 2.127 3.574 2.127 8.234t-2.127 8.234q-2.126 3.574-5.972 5.61-3.8 1.99-8.867 1.99zm3.348-2.896h9.365q4.208 0 7.284-1.629 3.122-1.673 4.841-4.569 1.719-2.94 1.719-6.741 0-3.845-1.719-6.741t-4.841-4.524q-3.077-1.674-7.284-1.674h-9.365zm37.953 2.896V78.554l.769 2.08-13.436-21.987h3.574l11.808 19.319h-1.9l11.808-19.319h3.348l-13.437 21.988.769-2.081v11.763zm18.238 0v-31.67h2.76l21.852 27.507h-1.448V58.647h3.303v31.67h-2.76L181.02 62.81h1.448v27.507zm29.474 0 14.478-31.67h3.302l14.478 31.67h-3.529l-13.301-29.724h1.357l-13.301 29.724zm5.701-8.46.995-2.715h18.413l.996 2.714zm29.533 8.46v-31.67h2.76l14.478 24.702h-1.448l14.342-24.702h2.759v31.67h-3.212V63.669h.769l-13.21 22.621h-1.584l-13.301-22.62h.86v26.647zm40.948 0v-31.67h3.348v31.67zm25.144.271q-3.575 0-6.606-1.176-3.031-1.222-5.248-3.393a15.9 15.9 0 0 1-3.484-5.113q-1.221-2.94-1.221-6.424 0-3.483 1.221-6.424a15.9 15.9 0 0 1 3.484-5.113q2.263-2.17 5.293-3.348 3.031-1.221 6.606-1.221 3.438 0 6.469 1.176 3.031 1.13 5.113 3.439l-2.127 2.126q-1.945-1.99-4.298-2.85-2.352-.905-5.067-.905-2.85 0-5.293.995a12.2 12.2 0 0 0-4.253 2.76 13 13 0 0 0-2.85 4.162q-.995 2.353-.995 5.203t.995 5.248a13.7 13.7 0 0 0 2.85 4.162 13.1 13.1 0 0 0 4.253 2.76q2.443.95 5.293.95 2.715 0 5.067-.905 2.353-.904 4.298-2.895l2.127 2.126q-2.082 2.308-5.113 3.484-3.03 1.176-6.514 1.176m25.145 0q-3.53 0-6.786-1.13-3.213-1.177-4.977-2.987l1.312-2.579q1.674 1.629 4.479 2.76 2.85 1.086 5.972 1.086 2.985 0 4.841-.724 1.9-.769 2.759-2.036.906-1.267.905-2.805 0-1.855-1.086-2.986-1.04-1.131-2.759-1.764a28 28 0 0 0-3.801-1.177 211 211 0 0 1-4.162-1.04 19 19 0 0 1-3.845-1.538 8.26 8.26 0 0 1-2.805-2.489q-1.041-1.583-1.041-4.117 0-2.352 1.222-4.298 1.266-1.99 3.845-3.167 2.579-1.221 6.605-1.221 2.67 0 5.294.769 2.624.724 4.524 2.036l-1.131 2.67a14.9 14.9 0 0 0-4.343-1.992q-2.262-.633-4.389-.633-2.85 0-4.705.77-1.855.769-2.76 2.08-.86 1.267-.859 2.896 0 1.855 1.04 2.986 1.086 1.131 2.805 1.764 1.765.634 3.846 1.131a92 92 0 0 1 4.117 1.086q2.08.588 3.8 1.538 1.764.906 2.805 2.443 1.086 1.539 1.086 4.027 0 2.307-1.267 4.298-1.266 1.945-3.891 3.167-2.579 1.176-6.65 1.176M122.789 15.881q0 1.135-.197 1.135-.297 0-.691-.049a3.3 3.3 0 0 0-.889-.099h-7.897l-6.12-.05q-.295 0-2.221.149l-1.135.099-.098 1.332q-.05.74-.05 2.32 0 .789.099 2.073.099 1.185.099 1.727v1.974q0 .79.049 1.234.444.05 1.333.05h1.974q.296 0 1.184-.099a30 30 0 0 1 2.221-.099q.396 0 2.764.148l1.086.05q.395 0 1.135-.05.741-.098 1.431-.098l1.629.049q1.284.099 1.777.099.543 0 .74-.05l.296-.049q.346 0 .494.247.148.197.099.395-.05.345-.05.888 0 .494-.049.888-.05.396-.148.494-.099.05-.592.05l-1.975-.198q-3.701-.345-4.836-.346-4.196 0-6.17.149a14 14 0 0 1-1.727.098h-1.185q-.937 0-1.382-.05l-.148.79a15 15 0 0 0-.098 1.58q0 .592.098 1.382.099.79.099 1.382l.049 5.873-.049 2.468q-.05.444-.049 1.234.641.048 1.875.049 1.036.05 3.208.05l2.665.049q.84.049 2.567.049 1.037 0 2.714-.099l2.073-.05q1.185 0 1.974.05.79.05 1.185.05t.444.148q.099.147.099.641 0 .345-.049.74-.05.346-.05.79 0 .345-.247.494-.246.099-.789.099t-.889-.05q-1.332-.148-5.379-.148-2.469 0-3.554.05-.839.048-2.764.049l-4.59-.05a31 31 0 0 0-1.875-.049q-.691 0-.938-.148-.198-.198-.197-.592l.049-.79a1.8 1.8 0 0 0 .049-.444q0-.149-.049-.691-.05-.592-.049-2.122 0-1.481-.099-4.837a99 99 0 0 1-.148-5.33q0-1.086.247-6.268l.098-2.073q.05-1.037.05-1.876 0-5.725-.148-7.551-.149-1.185 1.431-1.185.395 0 1.283.1.79.098 1.185.098l3.109-.099q3.356-.197 5.182-.197 2.123 0 5.972.098 1.234.05 2.616.05.593 0 .74.296.149.295.099.642zm15.83-3.257q4.047 0 6.12 1.48 2.073 1.432 2.863 2.666.839 1.185 1.036 1.48.494.642.494.987a.67.67 0 0 1-.198.494 1.9 1.9 0 0 1-.493.345q-.297.149-.395.247-.592.395-1.579 1.234l-1.333 1.037q-.839.64-1.135.79a.66.66 0 0 1-.395.147q-.345 0-.642-.395a14 14 0 0 1-.394-.543q-.099-.147-.543-.641a3.3 3.3 0 0 0-1.037-.84 3 3 0 0 0-1.431-.345q-1.48 0-2.32 1.925t-.839 6.86q0 3.258.543 5.33.543 2.074 1.283 3.012.79.888 1.481.888.987 0 1.481-.444.543-.445.937-1.678.395-1.185 1.284-1.185.296 0 .641.099l.592.148q.495.197 2.419.642 1.924.395 3.307.641.69.148.691 1.185 0 .493-.05.74-.049.642-.395 1.727-1.036 3.16-3.553 5.726-2.468 2.517-7.403 2.517-3.01-.001-6.071-1.826t-5.182-6.071q-2.123-4.294-2.123-11.253 0-9.87 3.801-13.474 3.8-3.652 8.538-3.652m19.309 1.431q-.05.592-.099 6.91a1658 1658 0 0 0-.049 12.98q0 2.863.691 5.133.74 2.27 2.023 3.553 1.284 1.284 2.863 1.284 2.171 0 3.109-1.234.987-1.284.987-2.665l.099-3.01q.148-7.404.148-8.194 0-1.136.099-4.491.148-2.814.148-5.528 0-2.418-.198-3.405-.148-.593-.148-.938 0-.69.296-.84.346-.196.642-.147h.444q.494.05 1.086.05.642-.05 1.135-.05h1.283q.79 0 .889.247.147.197.197.937.099 1.087.099 2.665 0 1.085-.049 1.58-.05.493.049 4.146.246 6.02.247 9.92v3.01q-.099 6.368-3.06 9.23-2.913 2.813-7.058 2.813-3.159 0-5.084-2.073-1.925-2.122-2.714-4.688-.345-1.135-.543-3.505a81 81 0 0 1-.148-4.935q0-2.814.148-3.751.099-.69.099-4.59 0-6.219-.198-8.983a5 5 0 0 1-.049-.79q0-1.53.938-1.134l.543.049q.197 0 .394-.05.247-.049.494-.049.246 0 .247.543m31.157 4.689q-.198 4.047-.198 6.07l.099 7.453q.05 1.777.049 3.652l-.099 5.38-.049.987.049 1.382.099 1.727 7.058.247 5.873.05h.099q.296 0 .345.098.05.1 0 .296v.247q-.05.198 0 .74.099.543.099.988 0 .345-.247.444-.246.099-.641.05h-.543l-2.616-.149q-3.455-.296-4.886-.296-1.58 0-7.996.296l-4.491.148q-1.086 0-1.086-.987v-3.85l.198-16.533q0-1.875-.247-6.812l-.198-6.07q0-.84.642-.84.247 0 .839.149.593.148.938.148 1.381.197 3.307.197 1.332 0 2.517-.148.74-.099 1.036.099.297.197.296.642 0 .345-.098.74-.05.345-.05.79zm18.034-5.38q.642.05 1.234.05.642-.05 1.086-.05 1.086 0 1.579.05.593.049.84.246a.66.66 0 0 1 .246.543q0 .248-.049.543-.05.295-.099.543a74 74 0 0 0-.592 8.637q-.05 1.284-.049 3.948l.049 5.972q.05.741.049 1.53l.05 1.975q.098 2.565.098 3.8 0 .937-.049 1.135-.05.198-.049 1.135l.049 2.715q.05.592.049 1.48.05.642-.394.79-.396.198-1.086.148h-4.492q-.74.05-.937-.345-.198-.346-.247-1.185-.099-.345.099-1.826.197-1.381.197-2.37 0-.344.346-6.662.296-4.64.296-5.083l.098-4.837.099-4.492.099-2.665.099-1.776V15.24q0-1.925.987-1.925.246 0 .394.05m31.744 34.103q.148.345.148.494 0 .197-.543.197h-2.764q-.198 0-.345-.05-.099-.098-.198-.394a28 28 0 0 1-.543-1.777q-.444-1.234-.592-2.22a15 15 0 0 0-.494-1.777q-.296-1.037-.543-1.58a14 14 0 0 1-.789-2.122l-.444-1.431q-.248-.543-.395-.642-.1-.148-.395-.148-1.036 0-1.53.05l-2.122.098q-.395.05-3.653.05h-3.109q-.296 0-.444.542l-.099.494-.197.938q-.099.246-.642 2.862-.148.84-.493 2.172-.099.986-.445 1.629-.098.147-.246.69a81 81 0 0 1-.247.889q-.148.394-.346 1.283-.049.05-.098.247-.05.148-.148.197h-1.284q-.444 0-.246-.641 0-.149.049-.247 0-.099.049-.247l.148-.444.445-1.826.345-1.037q.247-.74.346-1.382.246-1.184.937-3.602l.395-1.382q.938-3.06 1.185-4.294l.691-2.616q.493-1.629.592-2.073.345-1.48.987-3.702l.345-1.382.297-1.036q.493-1.679.839-2.418.098-.297.691-2.024.64-1.776.839-2.813.345-1.185.691-1.777.394-.592 1.036-.592.247 0 .494.444.246.444.493 1.086t.346.938q.394.938 1.382 4.688l.394 1.382q.05.395 1.629 4.837l.938 2.715.888 2.32q1.382 3.899 1.777 4.737 1.727 5.232 2.024 6.318.345 1.283 1.085 3.208.79 1.925.889 2.171m-9.23-14.658q.642 0 .642-.346 0-.246-.346-1.085-.295-.74-.888-2.764a32 32 0 0 0-.888-2.813q-.494-1.482-1.086-3.505-.543-2.023-.642-2.616-.74-2.615-.987-2.615-.148 0-.493 1.332l-.296 1.086q-.346 1.332-.889 3.356a84 84 0 0 1-.987 3.356 83 83 0 0 1-.839 3.258q-.493 1.924-.79 2.665a2 2 0 0 0-.098.345q0 .345.296.445.345.098.641.098.346-.05.445-.049l2.862-.099q.592-.099 1.678-.098zm35.33 13.326q1.333 1.332 1.333 1.826 0 .098-.247.345-.444.297-2.221.296-1.283 0-1.629-.197-.345-.149-.542-.543a7 7 0 0 0-.247-.592q-.148-.296-1.234-1.678a582 582 0 0 0-1.579-2.172 169 169 0 0 1-4.541-6.07q-1.185-1.68-4.393-5.775l-.789-.987-3.406-4.245-.197 1.975q-.198 1.48-.099 3.553.149 1.383.197 7.157.05 5.774.05 8.44 0 .79-.592.986-.593.247-1.382.247-.346 0-.445-.296a4 4 0 0 1-.148-.642v-.444q-.098-.79-.098-2.32 0-.986.049-1.48.05-2.666.148-9.279.099-6.663.099-11.944 0-5.675-.148-6.613a9 9 0 0 1-.05-1.037q0-.74.198-.937.247-.198.691-.198.987 0 1.925.05l5.379.098q2.961 0 6.17 1.037 3.207 1.036 3.208 3.85 0 2.664-1.975 4.145a11.4 11.4 0 0 1-4.441 2.024q-2.42.543-4.245.543-.642 0-.691-.05.296.297 3.899 5.232Q263.829 45 264.963 46.136m-19.643-22.9q1.629 0 2.468-.05 2.862-.1 4.442-.395 2.27-.395 3.405-1.086 1.185-.69 1.185-2.171 0-.988-1.037-1.679-1.036-.74-2.517-1.085-1.431-.395-2.517-.395a92 92 0 0 0-3.455-.05h-1.678z" fill="#FF9F70"/>
  <path d="M119.581 90.317v-31.67h12.894q5.067 0 8.867 2.036 3.846 1.99 5.972 5.565 2.127 3.574 2.127 8.234t-2.127 8.234q-2.126 3.574-5.972 5.61-3.8 1.99-8.867 1.99zm3.348-2.896h9.365q4.208 0 7.284-1.629 3.122-1.673 4.841-4.569 1.719-2.94 1.719-6.741 0-3.845-1.719-6.741t-4.841-4.524q-3.077-1.674-7.284-1.674h-9.365zm37.953 2.896V78.554l.769 2.08-13.436-21.987h3.574l11.808 19.319h-1.9l11.808-19.319h3.348l-13.437 21.988.769-2.081v11.763zm18.238 0v-31.67h2.76l21.852 27.507h-1.448V58.647h3.303v31.67h-2.76L181.02 62.81h1.448v27.507zm29.474 0 14.478-31.67h3.302l14.478 31.67h-3.529l-13.301-29.724h1.357l-13.301 29.724zm5.701-8.46.995-2.715h18.413l.996 2.714zm29.533 8.46v-31.67h2.76l14.478 24.702h-1.448l14.342-24.702h2.759v31.67h-3.212V63.669h.769l-13.21 22.621h-1.584l-13.301-22.62h.86v26.647zm40.948 0v-31.67h3.348v31.67zm25.144.271q-3.575 0-6.606-1.176-3.031-1.222-5.248-3.393a15.9 15.9 0 0 1-3.484-5.113q-1.221-2.94-1.221-6.424 0-3.483 1.221-6.424a15.9 15.9 0 0 1 3.484-5.113q2.263-2.17 5.293-3.348 3.031-1.221 6.606-1.221 3.438 0 6.469 1.176 3.031 1.13 5.113 3.439l-2.127 2.126q-1.945-1.99-4.298-2.85-2.352-.905-5.067-.905-2.85 0-5.293.995a12.2 12.2 0 0 0-4.253 2.76 13 13 0 0 0-2.85 4.162q-.995 2.353-.995 5.203t.995 5.248a13.7 13.7 0 0 0 2.85 4.162 13.1 13.1 0 0 0 4.253 2.76q2.443.95 5.293.95 2.715 0 5.067-.905 2.353-.904 4.298-2.895l2.127 2.126q-2.082 2.308-5.113 3.484-3.03 1.176-6.514 1.176Zm25.145 0q-3.53 0-6.786-1.13-3.213-1.177-4.977-2.987l1.312-2.579q1.674 1.629 4.479 2.76 2.85 1.086 5.972 1.086 2.985 0 4.841-.724 1.9-.769 2.759-2.036.906-1.267.905-2.805 0-1.855-1.086-2.986-1.04-1.131-2.759-1.764a28 28 0 0 0-3.801-1.177 211 211 0 0 1-4.162-1.04 19 19 0 0 1-3.845-1.538 8.26 8.26 0 0 1-2.805-2.489q-1.041-1.583-1.041-4.117 0-2.352 1.222-4.298 1.266-1.99 3.845-3.167 2.579-1.221 6.605-1.221 2.67 0 5.294.769 2.624.724 4.524 2.036l-1.131 2.67a14.9 14.9 0 0 0-4.343-1.992q-2.262-.633-4.389-.633-2.85 0-4.705.77-1.855.769-2.76 2.08-.86 1.267-.859 2.896 0 1.855 1.04 2.986 1.086 1.131 2.805 1.764 1.765.634 3.846 1.131a92 92 0 0 1 4.117 1.086q2.08.588 3.8 1.538 1.764.906 2.805 2.443 1.086 1.539 1.086 4.027 0 2.307-1.267 4.298-1.266 1.945-3.891 3.167-2.579 1.176-6.65 1.176ZM122.789 15.881q0 1.135-.197 1.135-.297 0-.691-.049a3.3 3.3 0 0 0-.889-.099h-7.897l-6.12-.05q-.295 0-2.221.149l-1.135.099-.098 1.332q-.05.74-.05 2.32 0 .789.099 2.073.099 1.185.099 1.727v1.974q0 .79.049 1.234.444.05 1.333.05h1.974q.296 0 1.184-.099a30 30 0 0 1 2.221-.099q.396 0 2.764.148l1.086.05q.395 0 1.135-.05.741-.098 1.431-.098l1.629.049q1.284.099 1.777.099.543 0 .74-.05l.296-.049q.346 0 .494.247.148.197.099.395-.05.345-.05.888 0 .494-.049.888-.05.396-.148.494-.099.05-.592.05l-1.975-.198q-3.701-.345-4.836-.346-4.196 0-6.17.149a14 14 0 0 1-1.727.098h-1.185q-.937 0-1.382-.05l-.148.79a15 15 0 0 0-.098 1.58q0 .592.098 1.382.099.79.099 1.382l.049 5.873-.049 2.468q-.05.444-.049 1.234.641.048 1.875.049 1.036.05 3.208.05l2.665.049q.84.049 2.567.049 1.037 0 2.714-.099l2.073-.05q1.185 0 1.974.05.79.05 1.185.05t.444.148q.099.147.099.641 0 .345-.049.74-.05.346-.05.79 0 .345-.247.494-.246.099-.789.099t-.889-.05q-1.332-.148-5.379-.148-2.469 0-3.554.05-.839.048-2.764.049l-4.59-.05a31 31 0 0 0-1.875-.049q-.691 0-.938-.148-.198-.198-.197-.592l.049-.79a1.8 1.8 0 0 0 .049-.444q0-.149-.049-.691-.05-.592-.049-2.122 0-1.481-.099-4.837a99 99 0 0 1-.148-5.33q0-1.086.247-6.268l.098-2.073q.05-1.037.05-1.876 0-5.725-.148-7.551-.149-1.185 1.431-1.185.395 0 1.283.1.79.098 1.185.098l3.109-.099q3.356-.197 5.182-.197 2.123 0 5.972.098 1.234.05 2.616.05.593 0 .74.296.149.295.099.642zm15.83-3.257q4.047 0 6.12 1.48 2.073 1.432 2.863 2.666.839 1.185 1.036 1.48.494.642.494.987a.67.67 0 0 1-.198.494 1.9 1.9 0 0 1-.493.345q-.297.149-.395.247-.592.395-1.579 1.234l-1.333 1.037q-.839.64-1.135.79a.66.66 0 0 1-.395.147q-.345 0-.642-.395a14 14 0 0 1-.394-.543q-.099-.147-.543-.641a3.3 3.3 0 0 0-1.037-.84 3 3 0 0 0-1.431-.345q-1.48 0-2.32 1.925t-.839 6.86q0 3.258.543 5.33.543 2.074 1.283 3.012.79.888 1.481.888.987 0 1.481-.444.543-.445.937-1.678.395-1.185 1.284-1.185.296 0 .641.099l.592.148q.495.197 2.419.642 1.924.395 3.307.641.69.148.691 1.185 0 .493-.05.74-.049.642-.395 1.727-1.036 3.16-3.553 5.726-2.468 2.517-7.403 2.517-3.01-.001-6.071-1.826t-5.182-6.071q-2.123-4.294-2.123-11.253 0-9.87 3.801-13.474 3.8-3.652 8.538-3.652Zm19.309 1.431q-.05.592-.099 6.91a1658 1658 0 0 0-.049 12.98q0 2.863.691 5.133.74 2.27 2.023 3.553 1.284 1.284 2.863 1.284 2.171 0 3.109-1.234.987-1.284.987-2.665l.099-3.01q.148-7.404.148-8.194 0-1.136.099-4.491.148-2.814.148-5.528 0-2.418-.198-3.405-.148-.593-.148-.938 0-.69.296-.84.346-.196.642-.147h.444q.494.05 1.086.05.642-.05 1.135-.05h1.283q.79 0 .889.247.147.197.197.937.099 1.087.099 2.665 0 1.085-.049 1.58-.05.493.049 4.146.246 6.02.247 9.92v3.01q-.099 6.368-3.06 9.23-2.913 2.813-7.058 2.813-3.159 0-5.084-2.073-1.925-2.122-2.714-4.688-.345-1.135-.543-3.505a81 81 0 0 1-.148-4.935q0-2.814.148-3.751.099-.69.099-4.59 0-6.219-.198-8.983a5 5 0 0 1-.049-.79q0-1.53.938-1.134l.543.049q.197 0 .394-.05.247-.049.494-.049.246 0 .247.543Zm31.157 4.689q-.198 4.047-.198 6.07l.099 7.453q.05 1.777.049 3.652l-.099 5.38-.049.987.049 1.382.099 1.727 7.058.247 5.873.05h.099q.296 0 .345.098.05.1 0 .296v.247q-.05.198 0 .74.099.543.099.988 0 .345-.247.444-.246.099-.641.05h-.543l-2.616-.149q-3.455-.296-4.886-.296-1.58 0-7.996.296l-4.491.148q-1.086 0-1.086-.987v-3.85l.198-16.533q0-1.875-.247-6.812l-.198-6.07q0-.84.642-.84.247 0 .839.149.593.148.938.148 1.381.197 3.307.197 1.332 0 2.517-.148.74-.099 1.036.099.297.197.296.642 0 .345-.098.74-.05.345-.05.79zm18.034-5.38q.642.05 1.234.05.642-.05 1.086-.05 1.086 0 1.579.05.593.049.84.246a.66.66 0 0 1 .246.543q0 .248-.049.543-.05.295-.099.543a74 74 0 0 0-.592 8.637q-.05 1.284-.049 3.948l.049 5.972q.05.741.049 1.53l.05 1.975q.098 2.565.098 3.8 0 .937-.049 1.135-.05.198-.049 1.135l.049 2.715q.05.592.049 1.48.05.642-.394.79-.396.198-1.086.148h-4.492q-.74.05-.937-.345-.198-.346-.247-1.185-.099-.345.099-1.826.197-1.381.197-2.37 0-.344.346-6.662.296-4.64.296-5.083l.098-4.837.099-4.492.099-2.665.099-1.776V15.24q0-1.925.987-1.925.246 0 .394.05Zm31.744 34.104q.148.345.148.494 0 .197-.543.197h-2.764q-.198 0-.345-.05-.099-.098-.198-.394a28 28 0 0 1-.543-1.777q-.444-1.234-.592-2.22a15 15 0 0 0-.494-1.777q-.296-1.037-.543-1.58a14 14 0 0 1-.789-2.122l-.444-1.431q-.248-.543-.395-.642-.1-.148-.395-.148-1.036 0-1.53.05l-2.122.098q-.395.05-3.653.05h-3.109q-.296 0-.444.542l-.099.494-.197.938q-.099.246-.642 2.862-.148.84-.493 2.172-.099.986-.445 1.629-.098.147-.246.69a81 81 0 0 1-.247.889q-.148.394-.346 1.283-.049.05-.098.247-.05.148-.148.197h-1.284q-.444 0-.246-.641 0-.149.049-.247 0-.099.049-.247l.148-.444.445-1.826.345-1.037q.247-.74.346-1.382.246-1.184.937-3.602l.395-1.382q.938-3.06 1.185-4.294l.691-2.616q.493-1.629.592-2.073.345-1.48.987-3.702l.345-1.382.297-1.036q.493-1.679.839-2.418.098-.297.691-2.024.64-1.776.839-2.813.345-1.185.691-1.777.394-.592 1.036-.592.247 0 .494.444.246.444.493 1.086t.346.938q.394.938 1.382 4.688l.394 1.382q.05.395 1.629 4.837l.938 2.715.888 2.32q1.382 3.899 1.777 4.737 1.727 5.232 2.024 6.318.345 1.283 1.085 3.208.79 1.925.889 2.171Zm-9.23-14.658q.642 0 .642-.346 0-.246-.346-1.085-.295-.74-.888-2.764a32 32 0 0 0-.888-2.813q-.494-1.482-1.086-3.505-.543-2.023-.642-2.616-.74-2.615-.987-2.615-.148 0-.493 1.332l-.296 1.086q-.346 1.332-.889 3.356a84 84 0 0 1-.987 3.356 83 83 0 0 1-.839 3.258q-.493 1.924-.79 2.665a2 2 0 0 0-.098.345q0 .345.296.445.345.098.641.098.346-.05.445-.049l2.862-.099q.592-.099 1.678-.098zm35.33 13.326q1.333 1.332 1.333 1.826 0 .098-.247.345-.444.297-2.221.296-1.283 0-1.629-.197-.345-.149-.542-.543a7 7 0 0 0-.247-.592q-.148-.296-1.234-1.678a582 582 0 0 0-1.579-2.172 169 169 0 0 1-4.541-6.07q-1.185-1.68-4.393-5.775l-.789-.987-3.406-4.245-.197 1.975q-.198 1.48-.099 3.553.149 1.383.197 7.157.05 5.774.05 8.44 0 .79-.592.986-.593.247-1.382.247-.346 0-.445-.296a4 4 0 0 1-.148-.642v-.444q-.098-.79-.098-2.32 0-.986.049-1.48.05-2.666.148-9.279.099-6.663.099-11.944 0-5.675-.148-6.613a9 9 0 0 1-.05-1.037q0-.74.198-.937.247-.198.691-.198.987 0 1.925.05l5.379.098q2.961 0 6.17 1.037 3.207 1.036 3.208 3.85 0 2.664-1.975 4.145a11.4 11.4 0 0 1-4.441 2.024q-2.42.543-4.245.543-.642 0-.691-.05.296.297 3.899 5.232Q263.829 45 264.963 46.136Zm-19.643-22.9q1.629 0 2.468-.05 2.862-.1 4.442-.395 2.27-.395 3.405-1.086 1.185-.69 1.185-2.171 0-.988-1.037-1.679-1.036-.74-2.517-1.085-1.431-.395-2.517-.395a92 92 0 0 0-3.455-.05h-1.678z" stroke="#FDE4D8" stroke-width="2.056" mask="url(#a)"/>
  <g clip-path="url(#b)">
    <path d="m39.927 64.655-.019.32h.013l.041.003.156.009a475 475 0 0 0 2.442.132c1.45.075 3.157.155 4.166.175 3.486.07 6.985.082 10.477-.32l.554-.064c1.894-.215 3.79-.43 5.653-1.025 2.889-.923 5.61-2.353 7.91-4.36 2.76-2.41 4.896-5.499 6.29-8.868a27.6 27.6 0 0 0 2.091-9.173c.172-3.1-.176-6.485-.964-9.486-1-3.803-2.894-7.054-5.478-10.015a21.1 21.1 0 0 0-6.358-4.947c-2.663-1.362-5.49-2.185-8.396-2.713-3.34-.608-6.714-.838-10.095-.857-3.577-.02-7.148.125-10.713.308-2.497.129-4.994.224-7.493.319q-1.61.06-3.22.125a6 6 0 0 1-.306 0h-.453v2.71l.275.04c2.076.296 2.221.305 3.066.359l.207.013 1.438.093 3.828.246q1.178.075 2.355.146l1.12.069c-.015.193-.03.378-.048.565q-.044.446-.092.891l-.051.483a56 56 0 0 0-.097 1.004l-.001.014v.248c.002.234.003.447-.01.662-.026.414-.07.828-.118 1.268v.006c-.138 1.573-.266 3.13-.394 4.685l-.024.3-.058.7-.316 3.834-.235 2.806-.202 2.413-.185 2.226-.14 1.701-.018.172-.017.168-.005.05.011.05c.376 1.667.75 3.319 1.128 4.97l.962 4.19 1.344 5.861q.033.15.032.333c.005 1.163-.088 2.944-.183 4.441a193 193 0 0 1-.174 2.484l-.012.156-.003.04v.014h-.001zm0 0-.019.32-.327-.019.026-.326zM58.57 49.811h-.001c-1.276.647-2.614.977-4.01 1.173-2.699.38-5.411.278-8.153.12-1.316-.077-2.634-.136-3.95-.196q-.863-.038-1.723-.08V27.807h.037q.386.002.768 0 1.076-.012 2.15-.028c1.57-.023 3.137-.046 4.706-.032 2.23.02 4.434.224 6.59.778 1.647.423 3.153 1.087 4.45 2.163a11 11 0 0 1 2.45 2.892c1.357 2.282 1.967 4.76 1.889 7.412-.056 1.876-.489 3.647-1.435 5.263-.91 1.554-2.156 2.75-3.768 3.556Z" fill="#FF9F70" stroke="#3F4654" stroke-width=".641"/>
    <path fill-rule="evenodd" clip-rule="evenodd" d="M2.272 57.273c0-6.212 0-12.424.02-18.664l.04-.048c.02-.023.034-.039.035-.056q.024-.255.043-.512.03-.38.068-.76c.032-.317.073-.633.115-.957l.04-.305.146-1.111c.096-.742.192-1.477.306-2.21l.232-1.505c.278-1.818.556-3.636.9-5.44.51-2.67 1.293-5.263 2.52-7.703a18.7 18.7 0 0 1 2.71-4.041c1.933-2.181 4.238-3.892 6.742-5.344C19.688 6.59 23.441 5.166 27.31 4.04c4.528-1.32 9.154-2.16 13.838-2.644C44 1.1 46.865.875 49.729.738a88 88 0 0 1 12.334.272c2.528.236 5.042.57 7.532 1.078 3.39.692 6.697 1.65 9.874 3.041 2.761 1.21 5.328 2.735 7.64 4.679 2.442 2.053 4.385 4.522 5.902 7.318.493.91.928 1.85 1.363 2.791q.263.57.532 1.14c.058.122.102.252.146.385q.032.099.068.198.017 0 .038.032-.017.008-.028-.01a.1.1 0 0 0 .032.035q.004.009.005.023l.004.021q.017-.002.038.033-.019.008-.03-.011a.2.2 0 0 0 .034.04.5.5 0 0 1 .003.1v.002q.073.182.149.365v.001c.152.37.308.75.42 1.14.338 1.17.673 2.343.94 3.53.163.719.247 1.456.332 2.19l.022.2.01.086q.117.996.154 1.999c.038 1.003.06 2.006.083 3.021v.011l.02.858a.4.4 0 0 1-.036-.083l.017.057v.001l.001.001.01.033.01.03a.15.15 0 0 1-.007.096v.001c.03.063.056.14.057.218.003.553.001 1.106-.002 1.683a1 1 0 0 1-.034-.109l.017.07.02.079a.16.16 0 0 1-.008.097c.03.022.057.057.058.093l.03 1.28.023 1.023q.022.948.051 1.897.01.33.026.663l.024.622.066 2.11v.002l.019.611.017.56.018.524q.021.522.031 1.042l.003.199v.002c.02 1.243.04 2.487.047 3.731a175 175 0 0 1-.027 3.951 105 105 0 0 1-.098-2.048l.069 1.84.009.242.027 1.093v.001q.023.906.042 1.804c.06 3.09-.018 6.17-.463 9.238a28.7 28.7 0 0 1-3.04 9.327c-2.724 5.16-6.562 9.335-11.295 12.703a36 36 0 0 1-7.397 4.055c-2.618 1.058-5.334 1.727-8.135 2.087l-.43.056c-2.987.385-5.975.77-8.983.953-2.737.165-5.478.309-8.219.387a87 87 0 0 1-10.428-.352 96 96 0 0 1-3.446-.4l-.31-.039a68 68 0 0 1-1.788-.26q-.347-.055-.692-.106a26 26 0 0 1-1.01-.171.9.9 0 0 1-.285-.007.9.9 0 0 1 .27.005 3 3 0 0 0-.264-.023l-.033-.002c-.038-.005-.06-.008-.086-.03l-.097-.01c-.403-.045-.812-.09-1.212-.174-1.186-.253-2.365-.539-3.506-.96l-.267-.098c-.3-.11-.602-.221-.91-.343h.015c.078.001.164.003.247.017a2 2 0 0 0-.165-.02l-.122-.013a.2.2 0 0 1-.084-.02.1.1 0 0 0-.064-.032c-.01 0-.031-.008-.038-.019a.1.1 0 0 0-.07-.032q-.44-.189-.878-.374a80 80 0 0 1-2.645-1.163c-2.602-1.22-5-2.758-7.035-4.803-3.042-3.058-5.402-6.6-7.245-10.49C5.27 72.445 3.793 66.992 2.934 61.36c-.123-.808-.225-1.62-.327-2.43v-.001q-.092-.737-.19-1.475c-.007-.045-.048-.085-.09-.125q-.03-.028-.055-.057m24.345-40.319-.001.065-.003.139v67.57h13.694v-.158l-.015-4.07v-.045l-.035-9.576c-.007-2.079-.011-4.157.006-6.201l.14.015h.16s4.038.186 6.045.227c3.48.07 6.874.014 10.34-.386l.423-.048c1.958-.224 3.975-.455 5.847-1.053 2.851-.911 5.438-2.298 7.698-4.27 2.72-2.373 4.689-5.287 6.063-8.612 1.212-2.933 1.865-5.993 2.04-9.162.17-3.063-.11-6.082-.889-9.049-.984-3.745-2.666-7.133-5.221-10.063a20.8 20.8 0 0 0-6.26-4.868c-2.624-1.344-5.418-2.157-8.301-2.682-3.315-.603-6.667-.832-10.032-.851-3.566-.02-7.127.124-10.689.308-2.497.128-4.995.223-7.494.319q-1.607.06-3.215.125-.1.003-.2 0h-.092c0 .788 0 1.534-.009 2.326M2.272 36.017c.1-.023.201-.024.322-.025h.011c-.018.273-.05.545-.081.819l-.047.421q-.037.381-.067.761-.02.257-.043.512c-.002.026-.034.05-.071.078l-.004.003c-.02-.846-.02-1.696-.02-2.569m23.316 58.454q-.013.007-.045-.02.015-.01.045.02m.102.05q-.015.008-.046-.018.016-.013.046.018" fill="#575BFE"/>
    <mask id="c" fill="#fff">
      <path fill-rule="evenodd" clip-rule="evenodd" d="M2.293 38.61s-.02 12.452-.02 18.664q.025.029.054.056c.042.04.084.08.09.126q.098.735.19 1.474c.102.812.204 1.623.327 2.431.86 5.632 2.336 11.085 4.782 16.247 1.844 3.89 4.203 7.433 7.245 10.49 2.035 2.046 4.433 3.585 7.035 4.804.87.408 1.754.784 2.645 1.163l.878.374a.1.1 0 0 1 .049.016q-.015-.009-.024-.003.03.027.045.02c.007.01.027.019.039.019a.1.1 0 0 1 .045.016q-.018-.013-.028-.004.032.027.046.019a.2.2 0 0 0 .085.02q.061.008.121.013c.07.007.137.013.2.027a1.4 1.4 0 0 0-.281-.023H25.8c.307.121.61.232.91.342l.266.098c1.141.422 2.32.707 3.507.96.4.085.808.13 1.211.173l.097.011c.026.022.048.025.087.03l.032.002c.088.005.166.009.251.02a1 1 0 0 0-.256-.002q.158.026.284.007c.345.066.677.12 1.01.17l.69.107h.002a68 68 0 0 0 1.788.26l.31.04c1.147.147 2.295.293 3.447.4a87 87 0 0 0 10.428.35c2.74-.077 5.48-.22 8.218-.386 3.008-.182 5.996-.568 8.984-.953l.43-.055c2.8-.361 5.517-1.03 8.134-2.088a36 36 0 0 0 7.397-4.055c4.733-3.368 8.571-7.543 11.296-12.703a28.7 28.7 0 0 0 3.04-9.327c.445-3.067.521-6.148.463-9.237q-.018-.895-.043-1.798v-.007q-.015-.542-.027-1.094l-.01-.266-.23-1.842.26 2.074s.034-2.637.027-3.95a344 344 0 0 0-.046-3.733l-.004-.2c-.005-.347-.018-.694-.03-1.042l-.019-.523-.102-3.284-.024-.622q-.015-.33-.026-.663-.03-.949-.05-1.897-.014-.51-.024-1.023l-.03-1.28c0-.036-.027-.07-.058-.092a.16.16 0 0 0 .007-.098q-.008-.04-.018-.076v-.002q-.012-.045-.02-.085a1 1 0 0 0 .037.123c.003-.577.005-1.13.001-1.683a.5.5 0 0 0-.057-.218.15.15 0 0 0 .007-.096l-.02-.065-.022-.076c.009.04.027.078.04.102l-.02-.868v-.003a175 175 0 0 0-.083-3.02 26 26 0 0 0-.186-2.285c-.084-.734-.169-1.471-.33-2.189-.268-1.187-.603-2.36-.941-3.53a11 11 0 0 0-.42-1.14l-.15-.368a.5.5 0 0 0-.003-.1.14.14 0 0 1-.033-.041q.01.02.03.012-.022-.036-.039-.033l-.004-.023-.002-.014-.002-.008a.1.1 0 0 1-.037-.042q.013.027.033.018-.022-.036-.038-.032-.037-.1-.069-.198a3 3 0 0 0-.146-.386q-.269-.568-.531-1.139c-.436-.941-.87-1.882-1.364-2.791-1.517-2.797-3.46-5.265-5.902-7.32-2.311-1.943-4.879-3.469-7.64-4.678-3.176-1.39-6.484-2.349-9.874-3.041-2.49-.509-5.004-.842-7.532-1.078A88 88 0 0 0 49.73.738c-2.865.136-5.729.362-8.582.657-4.684.484-9.31 1.325-13.837 2.644-3.87 1.127-7.623 2.55-11.122 4.579-2.504 1.451-4.809 3.162-6.742 5.343a18.7 18.7 0 0 0-2.71 4.04c-1.227 2.441-2.01 5.034-2.52 7.704-.344 1.805-.622 3.622-.9 5.44l-.232 1.506c-.114.732-.21 1.468-.306 2.209a181 181 0 0 1-.187 1.425l-.068.526a18 18 0 0 0 .082-.819h-.011c-.121.002-.222.002-.322.025 0 .874 0 1.747.02 2.593m24.323-21.591v-.026l.001-.039c.01-.792.01-1.538.01-2.326l.092.001q.1.002.2-.001 1.607-.066 3.214-.125c2.499-.095 4.998-.19 7.495-.32 3.56-.183 7.122-.327 10.688-.307 3.365.019 6.717.248 10.032.851 2.883.525 5.677 1.339 8.302 2.682a20.8 20.8 0 0 1 6.259 4.869c2.555 2.93 4.237 6.317 5.221 10.063.78 2.966 1.06 5.985.89 9.049-.176 3.168-.829 6.228-2.04 9.161-1.375 3.325-3.344 6.24-6.064 8.613-2.26 1.971-4.846 3.358-7.697 4.27-1.872.598-3.89.828-5.848 1.052l-.422.048c-3.467.4-6.86.457-10.34.386-2.008-.04-6.046-.227-6.046-.227h-.16l-.14-.015a518 518 0 0 0-.006 6.201l.035 9.616.015 4.075v.158H26.614v-67.57q0-.07.002-.139"/>
    </mask>
    <path fill-rule="evenodd" clip-rule="evenodd" d="M2.293 38.61s-.02 12.452-.02 18.664q.025.029.054.056c.042.04.084.08.09.126q.098.735.19 1.474c.102.812.204 1.623.327 2.431.86 5.632 2.336 11.085 4.782 16.247 1.844 3.89 4.203 7.433 7.245 10.49 2.035 2.046 4.433 3.585 7.035 4.804.87.408 1.754.784 2.645 1.163l.878.374a.1.1 0 0 1 .049.016q-.015-.009-.024-.003.03.027.045.02c.007.01.027.019.039.019a.1.1 0 0 1 .045.016q-.018-.013-.028-.004.032.027.046.019a.2.2 0 0 0 .085.02q.061.008.121.013c.07.007.137.013.2.027a1.4 1.4 0 0 0-.281-.023H25.8c.307.121.61.232.91.342l.266.098c1.141.422 2.32.707 3.507.96.4.085.808.13 1.211.173l.097.011c.026.022.048.025.087.03l.032.002c.088.005.166.009.251.02a1 1 0 0 0-.256-.002q.158.026.284.007c.345.066.677.12 1.01.17l.69.107h.002a68 68 0 0 0 1.788.26l.31.04c1.147.147 2.295.293 3.447.4a87 87 0 0 0 10.428.35c2.74-.077 5.48-.22 8.218-.386 3.008-.182 5.996-.568 8.984-.953l.43-.055c2.8-.361 5.517-1.03 8.134-2.088a36 36 0 0 0 7.397-4.055c4.733-3.368 8.571-7.543 11.296-12.703a28.7 28.7 0 0 0 3.04-9.327c.445-3.067.521-6.148.463-9.237q-.018-.895-.043-1.798v-.007q-.015-.542-.027-1.094l-.01-.266-.23-1.842.26 2.074s.034-2.637.027-3.95a344 344 0 0 0-.046-3.733l-.004-.2c-.005-.347-.018-.694-.03-1.042l-.019-.523-.102-3.284-.024-.622q-.015-.33-.026-.663-.03-.949-.05-1.897-.014-.51-.024-1.023l-.03-1.28c0-.036-.027-.07-.058-.092a.16.16 0 0 0 .007-.098q-.008-.04-.018-.076v-.002q-.012-.045-.02-.085a1 1 0 0 0 .037.123c.003-.577.005-1.13.001-1.683a.5.5 0 0 0-.057-.218.15.15 0 0 0 .007-.096l-.02-.065-.022-.076c.009.04.027.078.04.102l-.02-.868v-.003a175 175 0 0 0-.083-3.02 26 26 0 0 0-.186-2.285c-.084-.734-.169-1.471-.33-2.189-.268-1.187-.603-2.36-.941-3.53a11 11 0 0 0-.42-1.14l-.15-.368a.5.5 0 0 0-.003-.1.14.14 0 0 1-.033-.041q.01.02.03.012-.022-.036-.039-.033l-.004-.023-.002-.014-.002-.008a.1.1 0 0 1-.037-.042q.013.027.033.018-.022-.036-.038-.032-.037-.1-.069-.198a3 3 0 0 0-.146-.386q-.269-.568-.531-1.139c-.436-.941-.87-1.882-1.364-2.791-1.517-2.797-3.46-5.265-5.902-7.32-2.311-1.943-4.879-3.469-7.64-4.678-3.176-1.39-6.484-2.349-9.874-3.041-2.49-.509-5.004-.842-7.532-1.078A88 88 0 0 0 49.73.738c-2.865.136-5.729.362-8.582.657-4.684.484-9.31 1.325-13.837 2.644-3.87 1.127-7.623 2.55-11.122 4.579-2.504 1.451-4.809 3.162-6.742 5.343a18.7 18.7 0 0 0-2.71 4.04c-1.227 2.441-2.01 5.034-2.52 7.704-.344 1.805-.622 3.622-.9 5.44l-.232 1.506c-.114.732-.21 1.468-.306 2.209a181 181 0 0 1-.187 1.425l-.068.526a18 18 0 0 0 .082-.819h-.011c-.121.002-.222.002-.322.025 0 .874 0 1.747.02 2.593Zm24.323-21.591v-.026l.001-.039c.01-.792.01-1.538.01-2.326l.092.001q.1.002.2-.001 1.607-.066 3.214-.125c2.499-.095 4.998-.19 7.495-.32 3.56-.183 7.122-.327 10.688-.307 3.365.019 6.717.248 10.032.851 2.883.525 5.677 1.339 8.302 2.682a20.8 20.8 0 0 1 6.259 4.869c2.555 2.93 4.237 6.317 5.221 10.063.78 2.966 1.06 5.985.89 9.049-.176 3.168-.829 6.228-2.04 9.161-1.375 3.325-3.344 6.24-6.064 8.613-2.26 1.971-4.846 3.358-7.697 4.27-1.872.598-3.89.828-5.848 1.052l-.422.048c-3.467.4-6.86.457-10.34.386-2.008-.04-6.046-.227-6.046-.227h-.16l-.14-.015a518 518 0 0 0-.006 6.201l.035 9.616.015 4.075v.158H26.614v-67.57q0-.07.002-.139Z" fill="#575BFE" stroke="#3F4654" stroke-width="1.282" mask="url(#c)"/>
    <path d="M58.55 49.797c-1.259.637-2.596.966-3.99 1.163-2.698.38-5.409.277-8.149.119-1.315-.076-2.632-.136-3.947-.196l-1.722-.079V27.8h.037q.385.001.767-.001 1.077-.012 2.149-.028c1.57-.023 3.135-.045 4.703-.032 2.228.02 4.43.224 6.585.778 1.646.423 3.152 1.086 4.448 2.162a11 11 0 0 1 2.448 2.889c1.356 2.28 1.965 4.757 1.887 7.408-.055 1.874-.488 3.644-1.433 5.258-.91 1.554-2.155 2.75-3.782 3.564Z" fill="#575BFE" stroke="#3F4654" stroke-width=".641"/>
    <path d="M24.497 18.27c.891.044 1.78.103 2.672.163l.034.002 1.413.095q1.882.127 3.763.25l2.314.148 1.098.07c-.016.2-.031.39-.05.583q-.043.454-.09.906l-.05.492a95 95 0 0 0-.099 1.041v.002c-.064.772-.128 1.5-.195 2.252-.12 1.292-.238 2.562-.354 3.833l-.17 1.865q-.099 1.103-.2 2.204l-.3 3.248-.133 1.44-.124 1.35a1086 1086 0 0 1-.326 3.496c-.063.613-.134 1.313.13 1.997l.339 1.546q.38 1.734.763 3.47c.38 1.717.934 3.431 1.483 5.129l.004.012c.551 1.707 1.097 3.397 1.47 5.084q.032.154.031.342c.005 1.168-.16 2.34-.33 3.543-.169 1.195-.341 2.418-.336 3.652l.012 3.795.007 2.574.034 9.797.015 3.98H24.497z" fill="#FEE528" stroke="#3F4654" stroke-width=".641"/>
    <path fill-rule="evenodd" clip-rule="evenodd" d="M95.12 21.64q.017-.001.038.032-.024.012-.038-.032m.05.101q.018-.001.04.033c-.02.008-.03-.004-.04-.033m.195.53c.153.37.308.75.42 1.14.338 1.17.673 2.343.941 3.53.162.719.246 1.456.33 2.19l.034.286q.115.996.153 1.999c.038 1.003.06 2.006.083 3.021l.02.87a.34.34 0 0 1-.046-.142 63 63 0 0 1-.031-.717 31 31 0 0 0-.077-1.407c-.061-.713-.135-1.425-.209-2.137q-.072-.678-.137-1.355c-.185-1.918-.597-3.792-1.073-5.654a25 25 0 0 0-.314-1.09q-.086-.28-.169-.562a3 3 0 0 1-.074-.34q.073.183.15.368m2.026 15.21c.03.021.057.056.058.092l.03 1.28a497 497 0 0 0 .074 2.92l.026.663.024.622.066 2.11.036 1.174.019.524c.012.347.025.694.03 1.041l.004.2c.02 1.244.04 2.488.046 3.732a175 175 0 0 1-.027 3.951 113 113 0 0 1-.104-2.204l-.02-.496-.052-1.156q-.026-.522-.048-1.045l-.017-.403c-.031-.718-.062-1.437-.083-2.155a96 96 0 0 1-.05-2.539q-.005-1.635-.003-3.271 0-1.514-.002-3.027c-.001-.363-.014-.726-.027-1.09q-.011-.316-.02-.634a1.2 1.2 0 0 1 .04-.29m.008-1.821a.5.5 0 0 0-.058-.218 1 1 0 0 0-.04.285q.02.714.05 1.426a.6.6 0 0 0 .046.19c.003-.577.005-1.13.002-1.683" fill="#575BFE"/>
    <mask id="d" fill="#fff">
      <path d="M2.293 38.61s-.02 12.452-.02 18.664q.025.029.054.056c.042.04.084.08.09.126q.098.735.19 1.474c.102.812.204 1.623.327 2.431.86 5.632 2.336 11.085 4.782 16.247 1.844 3.89 4.203 7.433 7.245 10.49 2.035 2.046 4.433 3.585 7.035 4.804.87.408 1.754.784 2.645 1.163l.878.374a.1.1 0 0 1 .049.016q-.015-.009-.024-.003.03.027.045.02c.007.01.027.019.039.019a.1.1 0 0 1 .045.016q-.018-.013-.028-.004.032.027.046.019a.2.2 0 0 0 .085.02q.061.008.121.013c.07.007.137.013.2.027a1.4 1.4 0 0 0-.281-.023H25.8c.307.121.61.232.91.342l.01.004.256.094c1.141.422 2.32.707 3.507.96.4.085.808.13 1.211.173l.097.011c.026.022.048.025.087.03l.032.002c.088.005.166.009.251.02a1 1 0 0 0-.256-.002q.158.026.284.007c.345.066.677.12 1.01.17l.69.107h.002a68 68 0 0 0 1.788.26l.31.04c1.147.147 2.295.293 3.447.4a87 87 0 0 0 10.428.35c2.74-.077 5.48-.22 8.218-.386 3.008-.182 5.996-.568 8.984-.953l.43-.055c2.8-.361 5.517-1.03 8.134-2.088a36 36 0 0 0 7.397-4.055c4.733-3.368 8.571-7.543 11.296-12.703a28.7 28.7 0 0 0 3.04-9.327c.445-3.067.521-6.148.463-9.237q-.018-.891-.043-1.79v-.015q-.015-.542-.027-1.094l-.01-.266-.23-1.842.26 2.074s.034-2.637.027-3.95a344 344 0 0 0-.046-3.733l-.004-.2c-.005-.347-.018-.694-.03-1.042l-.019-.523-.102-3.284-.024-.622q-.015-.33-.026-.663-.03-.949-.05-1.897-.014-.51-.024-1.023l-.03-1.28c0-.036-.027-.07-.058-.092a.16.16 0 0 0 .007-.098l-.018-.076v-.002q-.012-.045-.02-.085a1 1 0 0 0 .037.123c.003-.577.005-1.13.001-1.683a.5.5 0 0 0-.057-.218.15.15 0 0 0 .007-.096l-.02-.065q-.014-.04-.022-.076c.009.04.027.078.04.102l-.02-.868v-.005a175 175 0 0 0-.083-3.018 26 26 0 0 0-.153-1.999l-.033-.283v-.003c-.084-.734-.169-1.471-.33-2.189-.268-1.187-.603-2.36-.941-3.53a11 11 0 0 0-.42-1.14l-.15-.368a.5.5 0 0 0-.003-.1.14.14 0 0 1-.033-.041q.01.02.03.012-.022-.036-.039-.033l-.004-.023-.002-.014-.002-.008a.1.1 0 0 1-.037-.042q.013.027.033.018-.022-.036-.038-.032-.037-.1-.069-.198a3 3 0 0 0-.146-.386q-.269-.568-.531-1.139c-.436-.941-.87-1.882-1.364-2.791-1.517-2.797-3.46-5.265-5.902-7.32-2.311-1.943-4.879-3.469-7.64-4.678-3.176-1.39-6.484-2.349-9.874-3.041-2.49-.509-5.004-.842-7.532-1.078A88 88 0 0 0 49.73.738c-2.865.136-5.729.362-8.582.657-4.684.484-9.31 1.325-13.837 2.644-3.87 1.127-7.623 2.55-11.122 4.579-2.504 1.451-4.809 3.162-6.742 5.343a18.7 18.7 0 0 0-2.71 4.04c-1.227 2.441-2.01 5.034-2.52 7.704-.344 1.805-.622 3.622-.9 5.44l-.232 1.506c-.114.732-.21 1.468-.306 2.209a180 180 0 0 1-.187 1.425l-.068.526a18 18 0 0 0 .082-.819h-.011c-.121.002-.222.002-.322.025 0 .874 0 1.747.02 2.593"/>
    </mask>
    <path d="M2.293 38.61s-.02 12.452-.02 18.664q.025.029.054.056c.042.04.084.08.09.126q.098.735.19 1.474c.102.812.204 1.623.327 2.431.86 5.632 2.336 11.085 4.782 16.247 1.844 3.89 4.203 7.433 7.245 10.49 2.035 2.046 4.433 3.585 7.035 4.804.87.408 1.754.784 2.645 1.163l.878.374a.1.1 0 0 1 .049.016q-.015-.009-.024-.003.03.027.045.02c.007.01.027.019.039.019a.1.1 0 0 1 .045.016q-.018-.013-.028-.004.032.027.046.019a.2.2 0 0 0 .085.02q.061.008.121.013c.07.007.137.013.2.027a1.4 1.4 0 0 0-.281-.023H25.8c.307.121.61.232.91.342l.01.004.256.094c1.141.422 2.32.707 3.507.96.4.085.808.13 1.211.173l.097.011c.026.022.048.025.087.03l.032.002c.088.005.166.009.251.02a1 1 0 0 0-.256-.002q.158.026.284.007c.345.066.677.12 1.01.17l.69.107h.002a68 68 0 0 0 1.788.26l.31.04c1.147.147 2.295.293 3.447.4a87 87 0 0 0 10.428.35c2.74-.077 5.48-.22 8.218-.386 3.008-.182 5.996-.568 8.984-.953l.43-.055c2.8-.361 5.517-1.03 8.134-2.088a36 36 0 0 0 7.397-4.055c4.733-3.368 8.571-7.543 11.296-12.703a28.7 28.7 0 0 0 3.04-9.327c.445-3.067.521-6.148.463-9.237q-.018-.891-.043-1.79v-.015q-.015-.542-.027-1.094l-.01-.266-.23-1.842.26 2.074s.034-2.637.027-3.95a344 344 0 0 0-.046-3.733l-.004-.2c-.005-.347-.018-.694-.03-1.042l-.019-.523-.102-3.284-.024-.622q-.015-.33-.026-.663-.03-.949-.05-1.897-.014-.51-.024-1.023l-.03-1.28c0-.036-.027-.07-.058-.092a.16.16 0 0 0 .007-.098l-.018-.076v-.002q-.012-.045-.02-.085a1 1 0 0 0 .037.123c.003-.577.005-1.13.001-1.683a.5.5 0 0 0-.057-.218.15.15 0 0 0 .007-.096l-.02-.065q-.014-.04-.022-.076c.009.04.027.078.04.102l-.02-.868v-.005a175 175 0 0 0-.083-3.018 26 26 0 0 0-.153-1.999l-.033-.283v-.003c-.084-.734-.169-1.471-.33-2.189-.268-1.187-.603-2.36-.941-3.53a11 11 0 0 0-.42-1.14l-.15-.368a.5.5 0 0 0-.003-.1.14.14 0 0 1-.033-.041q.01.02.03.012-.022-.036-.039-.033l-.004-.023-.002-.014-.002-.008a.1.1 0 0 1-.037-.042q.013.027.033.018-.022-.036-.038-.032-.037-.1-.069-.198a3 3 0 0 0-.146-.386q-.269-.568-.531-1.139c-.436-.941-.87-1.882-1.364-2.791-1.517-2.797-3.46-5.265-5.902-7.32-2.311-1.943-4.879-3.469-7.64-4.678-3.176-1.39-6.484-2.349-9.874-3.041-2.49-.509-5.004-.842-7.532-1.078A88 88 0 0 0 49.73.738c-2.865.136-5.729.362-8.582.657-4.684.484-9.31 1.325-13.837 2.644-3.87 1.127-7.623 2.55-11.122 4.579-2.504 1.451-4.809 3.162-6.742 5.343a18.7 18.7 0 0 0-2.71 4.04c-1.227 2.441-2.01 5.034-2.52 7.704-.344 1.805-.622 3.622-.9 5.44l-.232 1.506c-.114.732-.21 1.468-.306 2.209a180 180 0 0 1-.187 1.425l-.068.526a18 18 0 0 0 .082-.819h-.011c-.121.002-.222.002-.322.025 0 .874 0 1.747.02 2.593Z" stroke="#FDE4D8" stroke-width="1.282" mask="url(#d)"/>
  </g>
  <defs>
    <clipPath id="b">
      <path fill="#fff" d="M1 0h98v98H1z"/>
    </clipPath>
  </defs>
</svg>
